<?xml version="1.0" encoding="UTF-8"?>
<svg width="207px" height="94px" viewBox="0 0 207 94" version="1.1" xmlns="http://www.w3.org/2000/svg" xmlns:xlink="http://www.w3.org/1999/xlink">
    <!-- Generator: Sketch 63.1 (92452) - https://sketch.com -->
    <title>Qme</title>
    <desc>Created with Sketch.</desc>
    <g id="doctor" stroke="none" stroke-width="1" fill="none" fill-rule="evenodd">
        <g id="Landing-page" transform="translate(-82.000000, -119.000000)" fill="#4D8ABC" fill-rule="nonzero">
            <g id="Qme" transform="translate(82.000000, 119.000000)">
                <path d="M53.25,93.2 L64.05,88 L56.85,76.3 C55.7166667,74.4333333 54.55,72.9833333 53.35,71.95 C52.15,70.9166667 50.75,70.1666667 49.15,69.7 C55.0833333,67.1 59.6333333,62.95 62.8,57.25 C65.9666667,51.55 67.55,44.7 67.55,36.7 C67.55,29.3666667 66.1833333,22.9833333 63.45,17.55 C60.7166667,12.1166667 56.8333333,7.93333333 51.8,5 C46.7666667,2.06666667 40.85,0.6 34.05,0.6 C27.1833333,0.6 21.2333333,2.06666667 16.2,5 C11.1666667,7.93333333 7.28333333,12.1166667 4.55,17.55 C1.81666667,22.9833333 0.45,29.3666667 0.45,36.7 C0.45,44.0333333 1.81666667,50.4333333 4.55,55.9 C7.28333333,61.3666667 11.1666667,65.5666667 16.2,68.5 C21.2333333,71.4333333 27.1833333,72.9 34.05,72.9 C38.5166667,72.9 41.6833333,74.4333333 43.55,77.5 L43.55,77.5 L53.25,93.2 Z M34.05,62.6 C27.5166667,62.6 22.4333333,60.3666667 18.8,55.9 C15.1666667,51.4333333 13.35,45.0333333 13.35,36.7 C13.35,28.3666667 15.1666667,21.9833333 18.8,17.55 C22.4333333,13.1166667 27.5166667,10.9 34.05,10.9 C40.5166667,10.9 45.5666667,13.1166667 49.2,17.55 C52.8333333,21.9833333 54.65,28.3666667 54.65,36.7 C54.65,45.0333333 52.8333333,51.4333333 49.2,55.9 C45.5666667,60.3666667 40.5166667,62.6 34.05,62.6 Z" id="Q"></path>
                <path d="M89.3,65 L89.3,37.7 C89.3,33.6333333 90.2333333,30.4666667 92.1,28.2 C93.9666667,25.9333333 96.5333333,24.8 99.8,24.8 C102.666667,24.8 104.716667,25.65 105.95,27.35 C107.183333,29.05 107.8,31.7666667 107.8,35.5 L107.8,35.5 L107.8,65 L120.3,65 L120.3,37.7 C120.3,33.6333333 121.233333,30.4666667 123.1,28.2 C124.966667,25.9333333 127.566667,24.8 130.9,24.8 C133.7,24.8 135.733333,25.65 137,27.35 C138.266667,29.05 138.9,31.7666667 138.9,35.5 L138.9,35.5 L138.9,65 L151.4,65 L151.4,35 C151.4,28.2 150.033333,23.15 147.3,19.85 C144.566667,16.55 140.433333,14.9 134.9,14.9 C131.366667,14.9 128.166667,15.7166667 125.3,17.35 C122.433333,18.9833333 120.233333,21.2333333 118.7,24.1 C116.3,17.9666667 111.4,14.9 104,14.9 C100.666667,14.9 97.7,15.5833333 95.1,16.95 C92.5,18.3166667 90.4666667,20.3333333 89,23 L89,23 L89,16.1 L76.8,16.1 L76.8,65 L89.3,65 Z M187.3,65.8 C190.766667,65.8 194.216667,65.2333333 197.65,64.1 C201.083333,62.9666667 203.933333,61.4666667 206.2,59.6 L206.2,59.6 L202.6,51 C198.133333,54.4666667 193.2,56.2 187.8,56.2 C183.466667,56.2 180.133333,55.1 177.8,52.9 C175.466667,50.7 174.1,47.3333333 173.7,42.8 L173.7,42.8 L207,42.8 L207,39.3 C207,31.7 205.05,25.7333333 201.15,21.4 C197.25,17.0666667 191.933333,14.9 185.2,14.9 C180.6,14.9 176.483333,15.9666667 172.85,18.1 C169.216667,20.2333333 166.4,23.2333333 164.4,27.1 C162.4,30.9666667 161.4,35.4 161.4,40.4 C161.4,48.2666667 163.716667,54.4666667 168.35,59 C172.983333,63.5333333 179.3,65.8 187.3,65.8 Z M196.3,36.1 L173.7,36.1 C174.166667,32.1 175.416667,29.0333333 177.45,26.9 C179.483333,24.7666667 182.166667,23.7 185.5,23.7 C188.833333,23.7 191.433333,24.75 193.3,26.85 C195.166667,28.95 196.166667,32.0333333 196.3,36.1 L196.3,36.1 Z" id="me"></path>
            </g>
        </g>
    </g>
</svg>